HIERARCHY
ROOT Hips
{
	OFFSET 0.000000 121.760803 0.000000
	CHANNELS 6 Xposition Yposition Zposition Xrotation Yrotation Zrotation 
	JOINT Spine
	{
		OFFSET 0.072000 7.257294 -0.789700
		CHANNELS 3 Xrotation Yrotation Zrotation
		JOINT Spine1
		{
			OFFSET 0.000000 12.508769 -0.658067
			CHANNELS 3 Xrotation Yrotation Zrotation
			JOINT Spine1_split
			{
				OFFSET 0.000000 12.508769 -0.658067
				CHANNELS 3 Xrotation Yrotation Zrotation
				JOINT Spine2
				{
					OFFSET 0.000000 12.508769 -0.658067
					CHANNELS 3 Xrotation Yrotation Zrotation
					JOINT Neck
					{
						OFFSET 0.000000 14.033295 7.520400
						CHANNELS 3 Xrotation Yrotation Zrotation
						JOINT Head
						{
							OFFSET 0.000000 8.198502 5.703100
							CHANNELS 3 Xrotation Yrotation Zrotation
							JOINT HeadTop_End
							{
								OFFSET 0.000000 17.760803 13.332701
								CHANNELS 3 Xrotation Yrotation Zrotation
								End Site
								{
									OFFSET 0.000000 0.000000 0.000000
								}
							}
						}
					}
					JOINT LeftShoulder
					{
						OFFSET 6.292450 5.785301 -0.669000
						CHANNELS 3 Xrotation Yrotation Zrotation
						JOINT LeftShoulder_split
						{
							OFFSET 6.292450 5.785301 -0.669000
							CHANNELS 3 Xrotation Yrotation Zrotation
							JOINT LeftArm
							{
								OFFSET 13.907140 -6.093903 1.965100
								CHANNELS 3 Xrotation Yrotation Zrotation
								JOINT LeftForeArm
								{
									OFFSET 34.140198 0.000000 0.000000
									CHANNELS 3 Xrotation Yrotation Zrotation
									JOINT LeftHand
									{
										OFFSET 40.960209 0.000000 0.000000
										CHANNELS 3 Xrotation Yrotation Zrotation
										JOINT LeftHandThumb1
										{
											OFFSET 10.006996 -7.170425 9.573125
											CHANNELS 3 Xrotation Yrotation Zrotation
											JOINT LeftHandThumb2
											{
												OFFSET 1.835007 -1.059448 1.059443
												CHANNELS 3 Xrotation Yrotation Zrotation
												JOINT LeftHandThumb3
												{
													OFFSET 2.112267 -1.219513 1.219518
													CHANNELS 3 Xrotation Yrotation Zrotation
													JOINT LeftHandThumb4
													{
														OFFSET 4.843811 -2.796570 2.796576
														CHANNELS 3 Xrotation Yrotation Zrotation
														End Site
														{
															OFFSET 0.000000 0.000000 0.000000
														}
													}
												}
											}
										}
										JOINT LeftHandIndex1
										{
											OFFSET 18.389847 -0.922348 4.596882
											CHANNELS 3 Xrotation Yrotation Zrotation
											JOINT LeftHandIndex2
											{
												OFFSET 4.711273 0.000000 0.000000
												CHANNELS 3 Xrotation Yrotation Zrotation
												JOINT LeftHandIndex3
												{
													OFFSET 2.886131 0.000000 0.000000
													CHANNELS 3 Xrotation Yrotation Zrotation
													JOINT LeftHandIndex4
													{
														OFFSET 6.145912 0.000000 0.000000
														CHANNELS 3 Xrotation Yrotation Zrotation
														End Site
														{
															OFFSET 0.000000 0.000000 0.000000
														}
													}
												}
											}
										}
										JOINT LeftHandMiddle1
										{
											OFFSET 18.013008 0.000000 0.000000
											CHANNELS 3 Xrotation Yrotation Zrotation
											JOINT LeftHandMiddle2
											{
												OFFSET 4.946693 0.000000 0.000000
												CHANNELS 3 Xrotation Yrotation Zrotation
												JOINT LeftHandMiddle3
												{
													OFFSET 3.342232 0.000000 0.000000
													CHANNELS 3 Xrotation Yrotation Zrotation
													JOINT LeftHandMiddle4
													{
														OFFSET 4.461754 0.000000 0.000000
														CHANNELS 3 Xrotation Yrotation Zrotation
														End Site
														{
															OFFSET 0.000000 0.000000 0.000000
														}
													}
												}
											}
										}
										JOINT LeftHandRing1
										{
											OFFSET 15.849892 -0.102921 -4.126150
											CHANNELS 3 Xrotation Yrotation Zrotation
											JOINT LeftHandRing2
											{
												OFFSET 3.527054 0.000000 0.000000
												CHANNELS 3 Xrotation Yrotation Zrotation
												JOINT LeftHandRing3
												{
													OFFSET 2.961098 0.000000 0.000000
													CHANNELS 3 Xrotation Yrotation Zrotation
													JOINT LeftHandRing4
													{
														OFFSET 4.927200 0.000000 0.000000
														CHANNELS 3 Xrotation Yrotation Zrotation
														End Site
														{
															OFFSET 0.000000 0.000000 0.000000
														}
													}
												}
											}
										}
										JOINT LeftHandPinky1
										{
											OFFSET 12.791824 -0.832031 -6.799156
											CHANNELS 3 Xrotation Yrotation Zrotation
											JOINT LeftHandPinky2
											{
												OFFSET 3.327133 0.000000 0.000000
												CHANNELS 3 Xrotation Yrotation Zrotation
												JOINT LeftHandPinky3
												{
													OFFSET 3.014900 0.000000 0.000000
													CHANNELS 3 Xrotation Yrotation Zrotation
													JOINT LeftHandPinky4
													{
														OFFSET 5.847786 0.000000 0.000000
														CHANNELS 3 Xrotation Yrotation Zrotation
														End Site
														{
															OFFSET 0.000000 0.000000 0.000000
														}
													}
												}
											}
										}
									}
								}
							}
						}
					}
					JOINT RightShoulder
					{
						OFFSET -6.292450 5.785301 -0.669000
						CHANNELS 3 Xrotation Yrotation Zrotation
						JOINT RightShoulder_split
						{
							OFFSET -6.292450 5.785301 -0.669000
							CHANNELS 3 Xrotation Yrotation Zrotation
							JOINT RightArm
							{
								OFFSET -13.907140 -6.093903 1.965100
								CHANNELS 3 Xrotation Yrotation Zrotation
								JOINT RightForeArm
								{
									OFFSET -34.140198 0.000000 0.000000
									CHANNELS 3 Xrotation Yrotation Zrotation
									JOINT RightHand
									{
										OFFSET -40.960209 0.000000 0.000000
										CHANNELS 3 Xrotation Yrotation Zrotation
										JOINT RightHandThumb1
										{
											OFFSET -10.007050 -7.170456 9.573117
											CHANNELS 3 Xrotation Yrotation Zrotation
											JOINT RightHandThumb2
											{
												OFFSET -1.835007 -1.059448 1.059443
												CHANNELS 3 Xrotation Yrotation Zrotation
												JOINT RightHandThumb3
												{
													OFFSET -2.112267 -1.219513 1.219518
													CHANNELS 3 Xrotation Yrotation Zrotation
													JOINT RightHandThumb4
													{
														OFFSET -4.843834 -2.796585 2.796590
														CHANNELS 3 Xrotation Yrotation Zrotation
														End Site
														{
															OFFSET 0.000000 0.000000 0.000000
														}
													}
												}
											}
										}
										JOINT RightHandIndex1
										{
											OFFSET -18.389870 -0.922424 4.596786
											CHANNELS 3 Xrotation Yrotation Zrotation
											JOINT RightHandIndex2
											{
												OFFSET -4.711273 0.000000 0.000000
												CHANNELS 3 Xrotation Yrotation Zrotation
												JOINT RightHandIndex3
												{
													OFFSET -2.886131 0.000000 0.000000
													CHANNELS 3 Xrotation Yrotation Zrotation
													JOINT RightHandIndex4
													{
														OFFSET -6.145920 0.000000 0.000000
														CHANNELS 3 Xrotation Yrotation Zrotation
														End Site
														{
															OFFSET 0.000000 0.000000 0.000000
														}
													}
												}
											}
										}
										JOINT RightHandMiddle1
										{
											OFFSET -18.013008 0.000000 0.000000
											CHANNELS 3 Xrotation Yrotation Zrotation
											JOINT RightHandMiddle2
											{
												OFFSET -4.946693 0.000000 0.000000
												CHANNELS 3 Xrotation Yrotation Zrotation
												JOINT RightHandMiddle3
												{
													OFFSET -3.342232 0.000000 0.000000
													CHANNELS 3 Xrotation Yrotation Zrotation
													JOINT RightHandMiddle4
													{
														OFFSET -4.461754 0.000000 0.000000
														CHANNELS 3 Xrotation Yrotation Zrotation
														End Site
														{
															OFFSET 0.000000 0.000000 0.000000
														}
													}
												}
											}
										}
										JOINT RightHandRing1
										{
											OFFSET -15.849876 -0.102936 -4.126237
											CHANNELS 3 Xrotation Yrotation Zrotation
											JOINT RightHandRing2
											{
												OFFSET -3.527054 0.000000 0.000000
												CHANNELS 3 Xrotation Yrotation Zrotation
												JOINT RightHandRing3
												{
													OFFSET -2.961098 0.000000 0.000000
													CHANNELS 3 Xrotation Yrotation Zrotation
													JOINT RightHandRing4
													{
														OFFSET -4.927200 0.000000 0.000000
														CHANNELS 3 Xrotation Yrotation Zrotation
														End Site
														{
															OFFSET 0.000000 0.000000 0.000000
														}
													}
												}
											}
										}
										JOINT RightHandPinky1
										{
											OFFSET -12.791786 -0.832077 -6.799222
											CHANNELS 3 Xrotation Yrotation Zrotation
											JOINT RightHandPinky2
											{
												OFFSET -3.327133 0.000000 0.000000
												CHANNELS 3 Xrotation Yrotation Zrotation
												JOINT RightHandPinky3
												{
													OFFSET -3.014900 0.000000 0.000000
													CHANNELS 3 Xrotation Yrotation Zrotation
													JOINT RightHandPinky4
													{
														OFFSET -5.847786 0.000000 0.000000
														CHANNELS 3 Xrotation Yrotation Zrotation
														End Site
														{
															OFFSET 0.000000 0.000000 0.000000
														}
													}
												}
											}
										}
									}
								}
							}
						}
					}
				}
			}
		}
	}
	JOINT LeftUpLeg
	{
		OFFSET 13.026900 -6.336304 -1.092800
		CHANNELS 3 Xrotation Yrotation Zrotation
		JOINT LeftLeg
		{
			OFFSET 0.524474 -46.096886 9.782700
			CHANNELS 3 Xrotation Yrotation Zrotation
			JOINT LeftFoot
			{
				OFFSET -0.524474 -53.427422 -12.948200
				CHANNELS 3 Xrotation Yrotation Zrotation
				JOINT LeftToeBase
				{
					OFFSET 0.192200 -14.009700 16.364100
					CHANNELS 3 Xrotation Yrotation Zrotation
					JOINT LeftToe_End
					{
						OFFSET -1.784700 -0.561700 9.474800
						CHANNELS 3 Xrotation Yrotation Zrotation
						End Site
						{
							OFFSET 0.000000 0.000000 0.000000
						}
					}
				}
			}
		}
	}
	JOINT RightUpLeg
	{
		OFFSET -12.883000 -6.336304 -1.092800
		CHANNELS 3 Xrotation Yrotation Zrotation
		JOINT RightLeg
		{
			OFFSET -0.524587 -46.096825 9.782800
			CHANNELS 3 Xrotation Yrotation Zrotation
			JOINT RightFoot
			{
				OFFSET 0.524587 -53.427383 -12.948300
				CHANNELS 3 Xrotation Yrotation Zrotation
				JOINT RightToeBase
				{
					OFFSET -0.192200 -14.009700 16.364100
					CHANNELS 3 Xrotation Yrotation Zrotation
					JOINT RightToe_End
					{
						OFFSET 1.784700 -0.561700 9.474800
						CHANNELS 3 Xrotation Yrotation Zrotation
						End Site
						{
							OFFSET 0.000000 0.000000 0.000000
						}
					}
				}
			}
		}
	}
}
MOTION
Frames: 4
Frame Time: 0.016667
0.809091 104.501488 -0.520790 9.582403 -61.717617 10.100785 15.067370 -0.204177 -4.229933 5.872808 0.571262 -2.801487 0.000000 0.000000 0.000000 5.868642 0.648859 -2.855436 -3.636315 1.441459 3.747634 -20.003657 54.833138 2.408457 0.000000 -0.000000 -0.000001 1.829291 -3.192728 -12.271675 0.000000 0.000000 0.000000 -39.386702 26.350093 -34.912003 0.430043 -46.810148 0.421456 -10.315189 -0.130092 0.363158 40.109900 -15.297185 -0.360485 5.639920 28.097805 11.338767 1.088568 40.896304 22.734013 0.000000 -0.000002 -0.000001 6.882262 2.840028 -61.140500 8.248011 7.640041 -89.897871 2.146163 8.173408 -41.827809 0.000002 -0.000001 -0.000003 -2.345524 4.688879 -62.655231 8.754157 9.897063 -87.051239 1.995351 4.929286 -37.483375 -0.000001 0.000003 0.000003 -9.042498 10.045617 -60.766185 8.523963 9.508862 -66.892947 6.576520 9.896792 -70.385099 0.000000 -0.000001 0.000003 -17.946865 14.755020 -51.485911 8.868408 8.667044 -84.812085 4.540486 8.852640 -59.153004 -0.000001 -0.000001 0.000000 0.631513 7.257357 8.703787 0.000000 0.000000 0.000000 7.936903 -9.680959 53.430794 -22.866910 36.192168 17.964135 -27.375381 10.434886 -17.812418 -2.346133 -6.100508 10.731417 2.364018 -23.806271 -8.771115 -5.012478 13.984852 5.861540 0.000000 0.000001 0.000003 -0.054765 0.532084 0.738712 0.019701 -0.087378 5.078565 -0.003995 -2.004309 -2.834000 -0.000001 -0.000001 0.000003 0.348257 -5.918498 2.583778 1.432618 -4.204222 24.052108 0.133948 1.746506 -5.753018 0.000000 0.000001 0.000002 1.205822 -11.756072 4.154742 1.794833 -3.771863 26.865432 1.319767 -3.995325 19.486912 -0.000001 0.000000 -0.000001 2.126204 -19.166856 11.319903 3.354814 -2.122207 18.828578 6.366998 -5.015701 28.949169 0.000001 -0.000000 -0.000003 -36.713039 11.711414 23.797887 33.624164 -6.637228 1.094414 -2.991517 -2.340778 -16.500410 -1.836430 -0.000619 -0.000036 -0.000000 0.000002 0.000000 -30.996310 -19.509705 -32.736096 32.937891 3.739966 -3.784619 -9.001027 0.893983 22.875758 -0.001650 -0.000382 0.000010 -0.000000 -0.000000 -0.000000 
0.831826 104.510292 -0.516793 8.542661 -62.002880 8.896201 14.988852 -0.199454 -4.204133 5.836663 0.551932 -2.747395 0.000000 0.000000 0.000000 5.832886 0.628934 -2.797343 -3.515838 1.561335 3.707978 -19.681538 55.042223 2.670138 0.000000 0.000000 -0.000002 1.808124 -3.150467 -12.416802 0.000000 0.000000 0.000000 -36.014700 24.816596 -34.515138 0.404984 -47.203318 0.405356 -13.147552 -0.038078 2.174988 40.109903 -15.297184 -0.360484 5.639918 28.097802 11.338777 1.088570 40.896304 22.734017 0.000000 -0.000002 -0.000000 6.882264 2.840027 -61.140500 8.248009 7.640046 -89.897871 2.146163 8.173410 -41.827805 -0.000002 0.000000 -0.000002 -2.345528 4.688879 -62.655238 8.754160 9.897064 -87.051239 1.995354 4.929284 -37.483375 -0.000003 0.000000 -0.000001 -9.042498 10.045612 -60.766185 8.523965 9.508858 -66.892947 6.576517 9.896787 -70.385093 -0.000002 -0.000001 -0.000001 -17.946867 14.755022 -51.485915 8.868408 8.667046 -84.812085 4.540488 8.852642 -59.153004 0.000001 -0.000002 -0.000001 0.099919 6.784911 8.707336 0.000000 0.000000 0.000000 8.453887 -9.716536 53.843822 -22.782595 36.391364 17.920987 -26.906731 10.541923 -17.555704 -2.229122 -5.644468 10.223982 2.393477 -23.029694 -8.550837 -4.980952 13.814140 5.791552 -0.000001 0.000001 -0.000002 -0.031253 0.157259 3.080533 0.067406 -0.504276 7.959872 -0.014425 -2.507075 0.490513 -0.000000 -0.000002 0.000000 0.376503 -6.306655 4.884750 1.639312 -4.634046 27.021839 0.095046 1.209307 -2.497219 0.000000 0.000001 -0.000001 1.537603 -11.799184 6.930020 2.077787 -4.286924 30.313329 1.560730 -4.613978 23.337226 0.000000 0.000000 0.000000 2.277211 -19.700287 14.604157 3.606965 -2.772458 22.891459 6.733015 -5.643438 33.554431 -0.000000 -0.000000 -0.000000 -36.315959 11.691878 24.274304 33.774869 -6.091392 1.133709 -3.110617 -2.949948 -16.641368 -1.836430 -0.000622 -0.000036 -0.000000 -0.000001 -0.000000 -30.602844 -19.979997 -32.452995 32.920579 5.426184 -3.655894 -8.935040 -0.246919 22.259943 -0.001650 -0.000382 0.000010 0.000000 -0.000000 -0.000000 
0.841424 104.512741 -0.502093 7.421099 -62.610527 7.581409 14.765498 -0.178880 -4.128667 5.731447 0.497494 -2.601730 0.000000 0.000000 0.000000 5.728709 0.572375 -2.640778 -3.172946 1.885440 3.612998 -19.015339 55.489956 2.614349 -0.000000 0.000000 -0.000001 1.753345 -3.032289 -12.822385 0.000000 0.000000 0.000000 -32.213836 23.425686 -33.713537 0.377265 -47.042853 0.374153 -16.387649 -0.524141 3.915362 40.109900 -15.297182 -0.360489 5.639917 28.097805 11.338770 1.088564 40.896311 22.734011 0.000001 -0.000001 0.000000 6.882262 2.840027 -61.140507 8.248007 7.640049 -89.897871 2.146164 8.173411 -41.827805 -0.000001 0.000000 -0.000005 -2.345527 4.688879 -62.655231 8.754166 9.897064 -87.051239 1.995353 4.929281 -37.483375 0.000000 -0.000004 -0.000003 -9.042493 10.045613 -60.766185 8.523964 9.508853 -66.892940 6.576524 9.896786 -70.385099 -0.000001 0.000001 -0.000002 -17.946868 14.755022 -51.485918 8.868413 8.667049 -84.812085 4.540485 8.852640 -59.153004 -0.000001 0.000001 -0.000001 -1.447329 6.161768 8.633111 0.000000 0.000000 0.000000 9.394070 -10.760404 54.077087 -22.572450 37.039491 17.841262 -25.737444 10.731212 -17.031927 -2.096133 -5.152959 9.668789 2.419516 -22.184265 -8.315895 -4.947198 13.628543 5.715578 -0.000000 0.000000 -0.000004 0.010643 -0.298153 5.838088 0.147999 -0.978313 11.261737 0.010266 -3.084857 4.314841 -0.000000 0.000000 -0.000001 0.435403 -6.778000 7.554056 1.917825 -5.120877 30.524317 0.088427 0.602981 1.164873 0.000001 0.000001 -0.000000 1.924886 -11.837251 10.016849 2.453697 -4.859704 34.305670 1.901177 -5.305992 27.788068 0.000001 0.000000 0.000001 2.496667 -20.238848 18.079685 3.985116 -3.472889 27.434963 7.307796 -6.310915 38.904006 0.000000 0.000000 0.000002 -35.881111 11.943744 24.922706 34.012539 -6.334398 1.114964 -3.308283 -2.763597 -16.617384 -1.836430 -0.000621 -0.000035 -0.000000 -0.000000 -0.000000 -30.091013 -20.150738 -32.146449 32.789177 5.274462 -3.659688 -8.852427 0.467746 22.239453 -0.001650 -0.000382 0.000010 -0.000000 -0.000000 0.000000 
0.842021 104.497154 -0.490553 6.196007 -63.433224 6.144766 14.415321 -0.145233 -4.013880 5.567097 0.412693 -2.385941 0.000000 0.000000 0.000000 5.566057 0.484792 -2.409086 -2.647246 2.365246 3.479151 -17.989689 56.103232 2.243568 -0.000001 -0.000000 -0.000001 1.672541 -2.851051 -13.443085 0.000000 0.000000 0.000000 -28.045990 22.205729 -32.670485 0.347581 -46.527235 0.330377 -19.859485 -1.433914 5.545874 40.109903 -15.297187 -0.360486 5.639918 28.097805 11.338769 1.088570 40.896297 22.734010 0.000001 0.000002 -0.000002 6.882266 2.840026 -61.140493 8.248008 7.640050 -89.897871 2.146162 8.173407 -41.827802 -0.000002 0.000002 0.000002 -2.345523 4.688878 -62.655238 8.754158 9.897061 -87.051239 1.995354 4.929282 -37.483375 0.000000 -0.000000 -0.000000 -9.042493 10.045615 -60.766185 8.523967 9.508854 -66.892940 6.576520 9.896790 -70.385099 -0.000001 0.000001 0.000000 -17.946868 14.755019 -51.485911 8.868410 8.667046 -84.812085 4.540491 8.852638 -59.153004 0.000001 0.000002 0.000000 -3.766298 5.416467 8.450669 0.000000 0.000000 0.000000 10.628864 -12.718397 54.218209 -22.307092 38.229310 17.808321 -24.218169 10.776474 -16.612393 -1.948311 -4.635266 9.073844 2.440894 -21.283360 -8.070740 -4.911603 13.430822 5.634763 0.000001 -0.000001 -0.000002 0.075704 -0.754049 8.595592 0.259686 -1.461748 14.669943 0.078334 -3.689424 8.341188 0.000001 0.000000 0.000001 0.518895 -7.250084 10.225994 2.241024 -5.604567 34.164558 0.123178 -0.029590 4.989685 0.000000 -0.000002 0.000000 2.292857 -11.852350 12.949003 2.872665 -5.404292 38.305139 2.315176 -5.990431 32.397360 -0.000000 0.000001 0.000004 2.696880 -20.720383 21.219513 4.399100 -4.103570 31.748195 7.984942 -6.909388 44.266668 0.000000 -0.000001 -0.000001 -35.429554 12.359839 25.743167 34.307132 -6.599663 1.094009 -3.566622 -2.557838 -16.604408 -1.836430 -0.000621 -0.000035 -0.000000 0.000000 0.000000 -29.543772 -20.163345 -31.628178 32.751676 6.043831 -3.604299 -8.754752 0.292151 21.905037 -0.001650 -0.000382 0.000010 -0.000000 -0.000000 -0.000000 
